<?xml version="1.0" encoding="UTF-8" standalone="no"?>
<svg
   viewBox="0 0 16 16"
   version="1.1"
   id="svg1"
   sodipodi:docname="circle-play-solid-white.svg"
   width="16"
   height="16"
   inkscape:version="1.3.2 (091e20ef0f, 2023-11-25, custom)"
   xmlns:inkscape="http://www.inkscape.org/namespaces/inkscape"
   xmlns:sodipodi="http://sodipodi.sourceforge.net/DTD/sodipodi-0.dtd"
   xmlns="http://www.w3.org/2000/svg"
   xmlns:svg="http://www.w3.org/2000/svg">
  <defs
     id="defs1" />
  <sodipodi:namedview
     id="namedview1"
     pagecolor="#505050"
     bordercolor="#ffffff"
     borderopacity="1"
     inkscape:showpageshadow="0"
     inkscape:pageopacity="0"
     inkscape:pagecheckerboard="1"
     inkscape:deskcolor="#d1d1d1"
     inkscape:zoom="32.659494"
     inkscape:cx="8.1905738"
     inkscape:cy="10.119569"
     inkscape:window-width="1920"
     inkscape:window-height="1008"
     inkscape:window-x="0"
     inkscape:window-y="40"
     inkscape:window-maximized="1"
     inkscape:current-layer="svg1" />
  <!--!Font Awesome Free 6.6.0 by @fontawesome - https://fontawesome.com License - https://fontawesome.com/license/free Copyright 2024 Fonticons, Inc.-->
  <path
     d="M 3.3e-7,8 A 8,8 0 1 1 16,8 8,8 0 1 1 3.3e-7,8 Z M 5.8843753,4.596875 C 5.6468753,4.728125 5.5000003,4.98125 5.5000003,5.25 v 5.5 c 0,0.271875 0.146875,0.521875 0.384375,0.653125 0.2375,0.13125 0.525,0.128125 0.759375,-0.01563 l 4.4999997,-2.75 C 11.365625,8.5 11.503125,8.259375 11.503125,7.996875 c 0,-0.2625 -0.1375,-0.503125 -0.359375,-0.640625 l -4.4999997,-2.75 C 6.4125003,4.465625 6.1218753,4.459375 5.8843753,4.590625 Z"
     id="path1"
     style="fill:#ffffff;stroke-width:0.03125" />
</svg>
