<?xml version="1.0" encoding="UTF-8" standalone="no"?>
<svg
   viewBox="0 0 15.999999 16"
   version="1.1"
   id="svg1"
   sodipodi:docname="circle-left-solid.svg"
   width="16"
   height="16"
   inkscape:version="1.3.2 (091e20ef0f, 2023-11-25, custom)"
   xmlns:inkscape="http://www.inkscape.org/namespaces/inkscape"
   xmlns:sodipodi="http://sodipodi.sourceforge.net/DTD/sodipodi-0.dtd"
   xmlns="http://www.w3.org/2000/svg"
   xmlns:svg="http://www.w3.org/2000/svg">
  <defs
     id="defs1" />
  <sodipodi:namedview
     id="namedview1"
     pagecolor="#505050"
     bordercolor="#ffffff"
     borderopacity="1"
     inkscape:showpageshadow="0"
     inkscape:pageopacity="0"
     inkscape:pagecheckerboard="1"
     inkscape:deskcolor="#d1d1d1"
     inkscape:zoom="8.1648736"
     inkscape:cx="8.1446454"
     inkscape:cy="-6.7974108"
     inkscape:window-width="1920"
     inkscape:window-height="1008"
     inkscape:window-x="0"
     inkscape:window-y="40"
     inkscape:window-maximized="1"
     inkscape:current-layer="svg1" />
  <!--!Font Awesome Free 6.6.0 by @fontawesome - https://fontawesome.com License - https://fontawesome.com/license/free Copyright 2024 Fonticons, Inc.-->
  <path
     d="M 16,8 A 8,8 0 1 0 0,8 8,8 0 1 0 16,8 Z M 3.646875,7.646875 l 3.5,-3.5 C 7.290625,4.003125 7.50625,3.9625 7.690625,4.0375 7.875,4.1125 8,4.296875 8,4.5 v 2 h 3 c 0.553125,0 1,0.446875 1,1 v 1 c 0,0.553125 -0.446875,1 -1,1 H 8 v 2 c 0,0.203125 -0.121875,0.384375 -0.309375,0.4625 -0.1875,0.07813 -0.403125,0.03437 -0.54375,-0.109375 l -3.5,-3.5 c -0.19375,-0.19375 -0.19375,-0.5125 0,-0.70625 z"
     id="path1"
     style="fill:#ffffff;stroke-width:0.03125" />
</svg>
