<?xml version="1.0" encoding="UTF-8" standalone="no"?>
<svg
   viewBox="0 0 20 16"
   version="1.1"
   id="svg1"
   sodipodi:docname="code-commit-solid.svg"
   width="20"
   height="16"
   inkscape:version="1.3.2 (091e20ef0f, 2023-11-25, custom)"
   xmlns:inkscape="http://www.inkscape.org/namespaces/inkscape"
   xmlns:sodipodi="http://sodipodi.sourceforge.net/DTD/sodipodi-0.dtd"
   xmlns="http://www.w3.org/2000/svg"
   xmlns:svg="http://www.w3.org/2000/svg">
  <defs
     id="defs1" />
  <sodipodi:namedview
     id="namedview1"
     pagecolor="#505050"
     bordercolor="#ffffff"
     borderopacity="1"
     inkscape:showpageshadow="0"
     inkscape:pageopacity="0"
     inkscape:pagecheckerboard="1"
     inkscape:deskcolor="#d1d1d1"
     inkscape:zoom="13.063798"
     inkscape:cx="11.367292"
     inkscape:cy="2.2581489"
     inkscape:window-width="1920"
     inkscape:window-height="1008"
     inkscape:window-x="0"
     inkscape:window-y="40"
     inkscape:window-maximized="1"
     inkscape:current-layer="svg1" />
  <!--!Font Awesome Free 6.6.0 by @fontawesome - https://fontawesome.com License - https://fontawesome.com/license/free Copyright 2024 Fonticons, Inc.-->
  <path
     d="m 9.9999999,12 a 2.5000003,4.0000002 0 1 0 0,-8.0000002 2.5000003,4.0000002 0 1 0 0,8.0000002 z M 14.9,9.6 C 14.4375,13.25 12.41875,16 9.9999999,16 7.5812503,16 5.5625003,13.25 5.1000003,9.6 H 1.0000002 C 0.44687515,9.6 1.05e-7,8.88499 1.05e-7,8 1.05e-7,7.11501 0.44687515,6.4 1.0000002,6.4 H 5.1000003 C 5.5625003,2.7499998 7.5812503,0 9.9999999,0 12.41875,0 14.4375,2.7499998 14.9,6.4 H 19 c 0.553125,0 1,0.71501 1,1.6 0,0.88499 -0.446875,1.6 -1,1.6 z"
     id="path1"
     style="fill:#ffffff;stroke-width:0.0395285" />
</svg>
